<?xml version="1.0" encoding="utf-8"?>
<!-- Generator: Adobe Illustrator 23.0.3, SVG Export Plug-In . SVG Version: 6.00 Build 0)  -->
<svg version="1.1" id="Layer_1" xmlns="http://www.w3.org/2000/svg" xmlns:xlink="http://www.w3.org/1999/xlink" x="0px" y="0px"
	 viewBox="0 0 430.2 234.9" style="enable-background:new 0 0 430.2 234.9;" xml:space="preserve">
<style type="text/css">
	.st0{fill:#FFFFFF;}
	.st1{fill:#F04F56;}
	.st2{fill:#22B572;}
	.st3{fill:#006848;}
	.st4{fill:#AEDBC0;}
</style>
<g>
	<path class="st0" d="M261.8,21.9C213.1-3.4,158.3,5.6,139.4,42c-18.7,35.9,4.7,85.2,52.3,110.7c0.6,0.3,1.1,0.6,1.7,0.9
		c12.6,6.5,25.6,10.7,38.2,12.8c36.4,5.9,70.1-5.9,84.1-32.9C334.7,97.2,310.5,47.2,261.8,21.9L261.8,21.9z"/>
	<path class="st1" d="M261.8,21.9C213.1-3.4,158.3,5.6,139.4,42c-18.7,35.9,4.7,85.2,52.3,110.7c-12-23.9-27.1-54-33.4-66.9
		c-5.4-10.7-7.2-21.4-5.8-31.1c0.7-5.6,2.3-9,2.3-9c5.3-14.4,18.5-25.4,37.5-29c34.7-6.5,75.6,13.8,91.4,45.5
		c15.9,31.7,0.6,62.6-34,69.1c-10.5,2-21.5,1.5-32.3-1c-4.7-1-1.8,4.4-1.8,4.4l16,31.9c36.4,5.9,70.1-5.9,84.1-32.9
		C334.7,97.2,310.5,47.2,261.8,21.9L261.8,21.9z"/>
	<path class="st2" d="M242,104.5c-6.7,2.1-13,2.2-19.7,1.4c-14.7-2-27.8-11.8-34.2-23.3c-8.2-14.7-6.3-33.2,11.8-40.1
		c18.7-7.2,39.3,3.7,48.9,19c2.5,4,4.3,8.3,5.2,12.5c-0.2-5.9-2.3-12.1-5.8-17.7c-5.6-8.9-15-16.4-25.6-19.6
		c13.7,2,26.3,10.9,33.3,22C266.4,75.7,264.4,97.5,242,104.5L242,104.5z"/>
</g>
<path class="st0" d="M55.9,227.3c-4.1,0-8.2-0.5-12.2-1.5c-13-3.3-23.9-11.4-30.7-22.8c-6.9-11.5-8.8-24.9-5.6-37.8
	c4-16.1,15.8-29.1,31.4-34.8l2.1-0.8l-0.7-2.1c-2.2-6.4-1.6-13.2,1.8-19.7c3.7-7.2,10.5-13.5,19.6-18.2c7.4-3.8,14.6-5.8,21.3-5.8
	c0.5,0,0.9,0,1.4,0c4.2,0.2,8.1,1.1,11.6,2.9l3.3,1.6l0-3.7c0.1-8.6,3.5-14.7,10.1-18c2.5-1.3,5.1-1.9,7.9-1.9c0.2,0,0.5,0,0.7,0
	c4.9,0.2,11.8,2.5,17,12.5c1.2,2.3,2.1,4.8,2.8,7.5l0.2,0.9l0.8,0.5c3.1,2,5.7,4.9,7.6,8.7c0.6,1.2,1.1,2.4,1.4,3.7l0.6,2.3l2.3-0.6
	c2.4-0.7,4.9-1,7.3-1c0.4,0,0.7,0,1.1,0c10.3,0.4,19.4,6.5,23.6,16l0.8,1.8l17.5-1.7c0.5,0,0.9-0.1,1.4-0.1c0.2,0,0.4,0,0.6,0
	c1.6,0.1,3.2,0.4,4.8,1.1l1.1,0.5l1-0.7c1.9-1.3,4.1-2.1,6.4-2.3l24.4-2.4c0.4,0,0.9-0.1,1.4-0.1c0.2,0,0.4,0,0.6,0
	c3,0.1,5.9,1.2,8.2,3.1c2.7,2.2,4.5,5.3,4.9,8.8l0.3,2.5l2.5-0.6c3.4-0.8,6.9-1.2,10.6-1.2c0.7,0,1.4,0,2.1,0
	c2.2,0.1,4.4,0.3,6.6,0.7c3.2,0.5,14.1,2.7,22.8,9.8l1.2,0.9l1.3-0.7c2.9-1.5,6.2-2.6,9.5-3.5c4.2-1.1,8.3-1.7,12.2-1.7
	c0.6,0,1.1,0,1.7,0c6.9,0.3,13.3,2.3,18.9,6l1.4,0.9l1.3-1.1c2.6-2.2,5.7-3.3,9-3.3c0.2,0,0.4,0,0.6,0c0.2,0,0.4,0,0.6,0l13.8,1.2
	l0.7-1.5c2.1-4.6,5.4-8.6,9.7-11.4c4.5-3,9.7-4.6,15-4.6c9.1,0,17.5,4.5,22.6,12.1c4,6,5.4,13.3,4,20.3c-1.4,7.1-5.5,13.2-11.5,17.2
	c-4.5,3-9.6,4.5-15,4.5c-2.8,0-5.6-0.4-8.3-1.3l-2.6-0.8l-3.5,23.3l0.2,0.6c1.7,4.1,2.2,8.7,1.3,13.1c-2.1,11.1-11.8,19.2-23.1,19.2
	c-0.3,0-0.6,0-0.9,0c-1.1,0-2.2-0.2-3.3-0.4c-5.7-1.1-10.9-4.2-14.4-8.8l-1.1-1.4l-1.6,0.7c-2.1,0.8-4.3,1.6-6.7,2.2
	c-4.4,1.2-8.8,1.8-12.9,1.8c-0.6,0-1.1,0-1.7,0c-9-0.4-16.8-3.5-23.1-9.3l-1.2-1.1l-1.5,0.8c-0.8,0.5-1.7,0.9-2.6,1.1
	c-5.1,1.6-10.8,2.4-16.8,2.4c-0.9,0-1.9,0-2.8-0.1c-2.9-0.1-5.9-0.4-8.9-0.9c-10.6-1.7-19.5-5.9-25.6-12.3l-0.8-0.8l-10.4,1
	c-0.5,0-0.9,0.1-1.4,0.1c-0.2,0-0.4,0-0.6,0c-1.6-0.1-3.1-0.4-4.6-1l-1.1-0.4l-1,0.6c-1.9,1.2-4,2-6.2,2.2l-24.4,2.4
	c-0.4,0-0.9,0.1-1.4,0.1c-0.2,0-0.4,0-0.6,0c-2.4-0.1-4.8-0.8-6.8-2.1l-0.4-0.2l-15.8-2.6l-0.8,0.9c-5.6,6.2-14.1,10-25.5,11.1
	l-28.1,2.9c-0.5,0-0.9,0.1-1.4,0.1c-0.2,0-0.4,0-0.6,0c-2.9-0.1-5.7-1.2-8-2.9l-1.7-1.3l-1.4,1.6C84,221.1,70.3,227.3,55.9,227.3z"
	/>
<g>
	<path class="st3" d="M47.7,158c-1.8,0.9-2.7,2-3.2,3.2L43,157l7.6-3.6l-2.4-5.1l-12,5.6l4.8,12.2l4.6-0.2c0.2-0.8,0.8-1.9,1.8-2.3
		c0.7-0.3,1.8-0.7,2.8,1.5c0.8,1.7,0.4,3-0.9,3.6c-1.2,0.6-2.4,0.3-3.3-1.3l-4.7,3.4c2.6,4.3,6.5,4.2,10,2.6
		c4.4-2.1,6.9-6.3,4.6-11.2C54,157.7,50.9,156.5,47.7,158z"/>
	<path class="st3" d="M416,130.5c-6.9-10.3-20.9-13.1-31.2-6.2c-5.1,3.4-8.3,8.5-9.5,14l-17.6-1.5c-0.1,0-0.3,0-0.4,0
		c-2.3-0.1-4.6,0.7-6.3,2.2c-1.5,1.3-2.5,3-3,4.9c-5.8-5.9-13.3-9.3-21.9-9.6c-4-0.2-8.2,0.3-12.6,1.5c-4.9,1.3-9.3,3.2-13,5.7
		c-0.5-0.8-1-1.6-1.8-2.2c-6.3-5.8-15.4-8.9-21.9-10c-2.1-0.3-4.1-0.5-6.1-0.6c-7.1-0.3-13.5,1-19,3.7l-0.8-8.1
		c-0.2-2.4-1.4-4.7-3.3-6.2c-1.6-1.3-3.5-2-5.5-2.1c-0.4,0-0.9,0-1.3,0l-24.4,2.4c-3.2,0.3-5.8,2.2-7.2,4.8c-1.7-2-4.1-3.2-6.7-3.3
		c-0.4,0-0.9,0-1.3,0l-21.5,2.1c-0.3-1.7-0.8-3.3-1.5-4.9c-3.5-7.8-11-12.9-19.6-13.2c-3.4-0.1-6.9,0.5-10.1,2
		c-2,0.9-3.8,2.1-5.4,3.4c-0.3-0.5-0.6-1-1-1.5c1.6-3.6,1.6-7.4-0.1-10.7c-2.5-4.9-5.8-7.1-8.3-8.1c-0.6-3.3-1.6-6.5-3.1-9.5
		c-3.3-6.4-7.7-9.8-13-10c-2.2-0.1-4.3,0.4-6.3,1.4c-8.8,4.5-8.5,14.7-6.3,24.1c-0.3,0.1-0.7,0.3-1,0.4c-0.9,0.5-1.9,1.1-2.8,2
		c-3.7-5.4-9.9-8.6-17.3-8.9c-6.3-0.3-13.1,1.5-20.4,5.2c-16.7,8.6-24.2,22.9-18,34.8c0.8,1.5,1.8,2.8,2.9,4
		c-17.3,2.9-32.1,15.6-36.7,33.7c-6.1,24.3,8.7,49,33,55.1c20.6,5.2,41.5-4.6,51-22.6L96,200c0.2,2.4,1.5,4.7,3.3,6.2
		c1.6,1.3,3.5,2,5.4,2.1c0.4,0,0.9,0,1.3,0l28.1-2.9c13.8-1.4,21-6.7,24.7-12.5l18.2,2.9c0.4,0.1,0.7,0.1,1.1,0.1c0.1,0,0.2,0,0.3,0
		c0.1,0.1,0.1,0.1,0.2,0.2c1.6,1.3,3.5,2,5.5,2.1c0.4,0,0.9,0,1.3,0l24.4-2.4c3-0.3,5.6-2,7-4.4c1.7,1.8,4,2.9,6.5,3
		c0.4,0,0.9,0,1.3,0l12.8-1.3c5.4,7,13.8,11.6,25.1,13.3c2.8,0.4,5.6,0.7,8.4,0.8c6.6,0.3,12.7-0.4,18.1-2.1
		c2.4-0.7,4.4-2.5,5.5-4.7c6,8,14.3,12.5,24.5,13c4.1,0.2,8.6-0.4,13.2-1.6c4.6-1.2,8.3-2.8,11.5-4.6c0.5,1.4,1.2,2.8,2.1,4.1
		c2.9,4.1,7.2,6.9,12.1,7.8c0.9,0.2,1.8,0.3,2.7,0.3c9.3,0.4,17.6-6.3,19.3-15.4c0.8-4.3,0.1-8.6-2-12.4c0.2-0.5,0.3-1.1,0.4-1.7
		l4-26.3c0-0.2,0.1-0.4,0.1-0.6l0.3-3c7.5,6.3,18.5,7.2,27,1.5C420,154.8,422.8,140.8,416,130.5z M71.8,169.6
		c-3.4,13.4-16.9,21.5-30.3,18.1c-13.4-3.4-21.5-16.9-18.1-30.3c3.4-13.4,16.9-21.5,30.3-18.1S75.2,156.3,71.8,169.6z M405.7,145.4
		c-5.7,3.8-13.4,2.3-17.2-3.4c-3.8-5.7-2.3-13.4,3.4-17.2c5.7-3.8,13.4-2.3,17.2,3.4C412.9,134,411.3,141.6,405.7,145.4z"/>
	<path class="st3" d="M395.5,133.9l1.8,1.4c0.4-0.2,0.9-0.4,1.4-0.3c0.3,0.1,0.9,0.3,0.5,1.5c-0.3,0.9-0.9,1.2-1.5,1
		c-0.6-0.2-1-0.7-0.7-1.6l-2.9-0.3c-0.5,2.5,1,3.7,2.8,4.3c2.3,0.7,4.6,0,5.4-2.6c0.7-2.3,0-3.7-1.7-4.3c-1-0.3-1.7-0.2-2.3,0.1
		l0.9-2l4,1.2l0.8-2.6l-6.3-1.9L395.5,133.9z"/>
</g>
<g>
	<path class="st0" d="M154.9,182.9l1.3-8l2.8-0.1c1.1,0,1.3-0.2,1.5-1.3l3.1-19.1c0.1-0.8,0-1.4-0.7-1.8l-3.6-2.1l2.4-8.1l19.6,3.2
		l-4.9,30.5c-0.2,1.2-0.1,1.4,1,1.7l2.7,1l-1.3,8L154.9,182.9z"/>
	<path class="st0" d="M105.2,199.1l-0.8-8.2l4.9-1.1c1.1-0.3,1.2-0.5,1.1-1.7l-3.8-36.9c-0.1-1.2-0.3-1.5-1.4-1.5l-5-0.1l-0.9-8.4
		l29.2-3c13.3-1.4,18,4.5,18.8,12.4c0.8,7.6-3.6,12.3-8.2,14.4l0,0.2c9,0.1,13.4,4.6,14.2,12.6c1.2,11.8-7.8,17.1-20.1,18.3
		L105.2,199.1z M131.8,155.4c-0.5-5.3-4.2-5.1-7.1-4.8l-1.2,0.1l1.2,11.4C129.3,161.5,132.3,160.3,131.8,155.4z M128.9,185.2
		c4.9-0.5,7.2-2.5,6.7-7.5c-0.6-5.4-3.7-5.8-7.3-5.5l-2.7,0.3l1.3,12.9L128.9,185.2z"/>
	<path class="st0" d="M223.8,185.2l-24.7-33l2.4,24.7c0.1,1.3,0.2,1.4,1.4,1.5l5.3,0.1l0.8,8.2l-24.4,2.4l-0.8-8.2l4.9-1
		c1.1-0.3,1.2-0.5,1.1-1.7l-3.7-37c-0.1-1.2-0.3-1.5-1.4-1.5l-5-0.1l-0.8-8.2l23.3-2.3l24.9,33.4l-2.5-25c-0.1-1.2-0.3-1.5-1.4-1.5
		l-5-0.1l-0.8-8.4l24.4-2.4l0.8,8.4l-5.2,1.2c-1.2,0.3-1.2,0.4-1.1,1.6l4.7,47.2L223.8,185.2z"/>
	<path class="st0" d="M290.2,179.9c-0.9-0.1-1.3,0.1-1.4,0.9l-2.4,15.5c-7.5,2.3-15.7,2-22.3,1c-21.4-3.3-26.1-17.1-23.5-33.9
		c2.7-17.1,14.6-28.2,34.9-25.1c4.6,0.7,12.2,3.1,17.1,7.6l-2.7,17.5l-11.8-2.9l0-7c0-1.4-0.2-1.5-1.1-1.9c-1-0.5-2.8-0.8-4.2-1.1
		c-7.8-1.2-13,5.2-14.6,15.1c-1.7,10.6,0.3,18.1,8.6,19.4c0.9,0.1,1.8,0.3,2.8,0.4c1.2,0.1,1.4-0.4,1.6-1.5l1-6.5l-6.7-1l2.7-8.9
		l26.4,4.1l-1.3,8.3L290.2,179.9z"/>
	<path class="st0" d="M295.8,181.4c-4.4-16.8,1.4-32,20-36.9c18.8-4.9,30,5.9,34.1,21.5c4.7,18.2-1.1,32-19.9,36.9
		C310.8,207.9,300.1,198,295.8,181.4z M333.2,171.2c-3.1-11.9-7.9-15.2-14-13.6c-6.3,1.6-9.6,7.2-6.5,19
		c3.2,12.3,8.3,14.7,14.6,13.1C333.1,188.2,336.4,183.7,333.2,171.2z"/>
	<path class="st0" d="M355.2,187.4l0.5-26.6l1.3-14.9l17.7,1.5l-1.3,14.9l-4,26.3L355.2,187.4z"/>
	<g>
		<path class="st0" d="M169.8,120.8c-3-6.7-10.8-9.7-17.5-6.7c-6.7,3-9.7,10.8-6.7,17.5c3,6.7,10.8,9.7,17.5,6.7
			C169.8,135.3,172.8,127.5,169.8,120.8z M152.8,124.8c-1.6-3.7,0-8,3.7-9.6c3.7-1.6,8,0,9.6,3.7c1.6,3.7,0,8-3.7,9.6
			C158.7,130.1,154.4,128.5,152.8,124.8z"/>
		<path class="st0" d="M159.6,117.5l3.4,1.7l-0.7,1.5l-2.2-1.1l-0.7,1.1c0.4-0.1,0.8-0.1,1.3,0.2c0.9,0.5,1.2,1.4,0.6,2.6
			c-0.7,1.4-2.1,1.6-3.4,1c-1-0.5-1.7-1.4-1.2-2.8l1.6,0.5c-0.2,0.5-0.1,0.8,0.3,1c0.4,0.2,0.7,0,1-0.5c0.3-0.6,0-0.8-0.2-0.9
			c-0.3-0.1-0.6-0.1-0.9,0l-0.9-1L159.6,117.5z"/>
	</g>
	<g>
		<path class="st0" d="M363.2,191.2c-5.2-1-10.3,2.5-11.2,7.7c-1,5.2,2.5,10.3,7.7,11.2c5.2,1,10.3-2.5,11.2-7.7
			C371.9,197.1,368.4,192.1,363.2,191.2z M358.5,203c-2.9-0.5-4.8-3.3-4.3-6.2c0.5-2.9,3.3-4.8,6.2-4.3c2.9,0.5,4.8,3.3,4.3,6.2
			C364.2,201.7,361.4,203.6,358.5,203z"/>
		<path class="st0" d="M357,195.9l2.5-1.3l0.6,1l-1.6,0.9l0.4,0.9c0.1-0.3,0.3-0.5,0.6-0.7c0.7-0.4,1.3-0.2,1.8,0.7
			c0.6,1,0.1,2-0.8,2.4c-0.7,0.4-1.5,0.5-2.2-0.4l0.9-0.8c0.2,0.3,0.5,0.4,0.7,0.2c0.3-0.1,0.3-0.4,0.1-0.8
			c-0.2-0.4-0.5-0.3-0.6-0.3c-0.2,0.1-0.3,0.3-0.4,0.5l-1,0.1L357,195.9z"/>
	</g>
</g>
<g>
	<path class="st4" d="M67.9,101.9c-11.8,6-17.8,15.1-14.1,22.4c2.2,4.3,7.4,5.4,10.8,3.7c2.2-1.1,2.7-4.9,2.1-7.7l-0.4,0.2
		c-1.3,0.7-5.1,2.2-7.1-1.5c-2-3.9,1.3-9.7,8.5-13.4c10-5.1,17.7-3.1,20.5,2.3c3.1,6-0.3,11.1-5.6,13.9c-1.4,0.7-2.5,1.1-3.6,1.2
		c-1.7-5.8-3.1-10.9-4.3-13.1c-1.7-3.3-6.6-1.1-8.6,0c0.5,0.8,1,1.6,1.5,2.6c5.4,10.6,8.6,28.2,12.7,36.2c0.8,1.6,1.8,2.8,1.8,2.8
		c4.4-2.2,6.1-6.4,6.1-6.4c-1-1.1-1.9-2.7-2.8-4.4c-2.1-4-3.9-9.3-5.5-14.4c1.4-0.3,3.1-0.9,4.9-1.8c9.1-4.7,14-12.3,9.6-20.8
		C91,97,81.1,95.1,67.9,101.9z"/>
	<path class="st4" d="M136.9,116.6c-1.9-3.8-4.3-6.5-6.7-8.6c2.6-2,4.6-5.1,3.7-6.9c-1.9-3.7-4.1-3.9-4.1-3.9s0.7,4.5-3.7,8
		c-0.3-0.2-0.7-0.4-1-0.5c0.6-6.2,0.6-14.9-2.6-21.2c-2.6-5-5-5.6-6.9-4.6c-5.1,2.6-1.9,14.2,2.2,25.5c-0.9,0.9-1.2,2.3-0.4,3.7
		c0.3,0.7,0.8,1.2,1.4,1.6c-0.1,3.2-0.6,7.8-2.7,8.8c-0.5,0.3-1.4-0.1-2.8-2.6c0-4.5-0.6-8.7-1.6-10.6c-1.1-2.1-2.4-2.5-3.3-2
		c-0.8,0.4-1.2,1.6-1.3,3.2c-1.1-0.4-2.4-0.3-3.9,0.5c-4.3,2.2-6.5,11.1-2.7,18.5c1.7,3.4,5.2,5.1,8,3.6c2.4-1.2,3.5-3.4,3.9-5.9
		c1.1,0.7,2.5,1.2,4.1,0.4c2.7-1.4,4.2-6.6,4.5-10.8c1.7,4.4,3.4,8.2,5,11.3c4.3,8.4,8.1,12,11.5,10.2
		C143.5,131.3,138.6,119.8,136.9,116.6z M107.7,123.4c-1.1,0.6-2.9-0.4-4.2-3c-2.2-4.3-1.4-7.8,0.2-8.7c1.2-0.6,2.7-0.4,4.1,1.2
		c0.5,2.4,1.3,4.8,2.1,6.8C109.6,121.6,108.7,122.8,107.7,123.4z M122.6,102.6c-3.3-9.4-4.6-16.7-3.6-17.2c0.5-0.3,1.2,0.8,1.7,1.8
		C123.1,91.8,123,98.2,122.6,102.6z M135.1,124.6c-1.5,0.8-3.6-1.9-5.5-5.5c-1.5-3-2.9-5.9-4.1-8.8c0.7-0.2,1.4-0.4,2-0.7
		c2.1,1.6,4.3,3.9,6,7.3C135.1,119.9,136.5,123.9,135.1,124.6z"/>
</g>
</svg>
